<svg xmlns="http://www.w3.org/2000/svg" viewBox="0 0 1160 620" width="1160" height="620"><rect width="1160" height="620" fill="#FBF4E4"/><g transform="translate(169.6,159.0) scale(1.5200)"><path d="M 0,0 L 0,100 M 0,2 L 54,2 M 0,50 L 44,50" fill="none" stroke="#4E3A52" stroke-width="66.9" stroke-linecap="round" stroke-linejoin="round"/></g><g transform="translate(342.9,159.0) scale(1.5200)"><path d="M 0,100 L 0,42 Q 0,0 35,0 Q 70,0 70,42 L 70,100 M 0,62 L 70,62" fill="none" stroke="#4E3A52" stroke-width="66.9" stroke-linecap="round" stroke-linejoin="round"/></g><g transform="translate(537.4,159.0) scale(1.5200)"><path d="M 0,0 L 0,100 M 0,2 L 30,2 Q 60,2 60,25 Q 60,48 30,48 L 0,48 M 0,48 L 34,48 Q 68,48 68,74 Q 68,98 34,98 L 0,98" fill="none" stroke="#4E3A52" stroke-width="66.9" stroke-linecap="round" stroke-linejoin="round"/></g><g transform="translate(729.0,159.0) scale(1.5200)"><path d="M 0,0 L 0,100 M 0,98 L 54,98" fill="none" stroke="#4E3A52" stroke-width="66.9" stroke-linecap="round" stroke-linejoin="round"/></g><g transform="translate(902.2,159.0) scale(1.5200)"><path d="M 0,0 L 0,100 M 0,2 L 56,2 M 0,50 L 46,50 M 0,98 L 56,98" fill="none" stroke="#4E3A52" stroke-width="66.9" stroke-linecap="round" stroke-linejoin="round"/></g><g transform="translate(169.6,159.0) scale(1.5200)"><path d="M 0,0 L 0,100 M 0,2 L 54,2 M 0,50 L 44,50" fill="none" stroke="#FBF4E4" stroke-width="24.3" stroke-linecap="round" stroke-linejoin="round"/></g><g transform="translate(342.9,159.0) scale(1.5200)"><path d="M 0,100 L 0,42 Q 0,0 35,0 Q 70,0 70,42 L 70,100 M 0,62 L 70,62" fill="none" stroke="#FBF4E4" stroke-width="24.3" stroke-linecap="round" stroke-linejoin="round"/></g><g transform="translate(537.4,159.0) scale(1.5200)"><path d="M 0,0 L 0,100 M 0,2 L 30,2 Q 60,2 60,25 Q 60,48 30,48 L 0,48 M 0,48 L 34,48 Q 68,48 68,74 Q 68,98 34,98 L 0,98" fill="none" stroke="#FBF4E4" stroke-width="24.3" stroke-linecap="round" stroke-linejoin="round"/></g><g transform="translate(729.0,159.0) scale(1.5200)"><path d="M 0,0 L 0,100 M 0,98 L 54,98" fill="none" stroke="#FBF4E4" stroke-width="24.3" stroke-linecap="round" stroke-linejoin="round"/></g><g transform="translate(902.2,159.0) scale(1.5200)"><path d="M 0,0 L 0,100 M 0,2 L 56,2 M 0,50 L 46,50 M 0,98 L 56,98" fill="none" stroke="#FBF4E4" stroke-width="24.3" stroke-linecap="round" stroke-linejoin="round"/></g><g transform="translate(259.0,475.0) scale(0.5000)"><path d="M 62,16 Q 46,-4 24,4 Q 0,14 0,50 Q 0,86 24,96 Q 46,104 62,84" fill="none" stroke="#4E3A52" stroke-width="15.0" stroke-linecap="round" stroke-linejoin="round"/></g><g transform="translate(343.0,475.0) scale(0.5000)"><path d="M 36,0 Q 72,0 72,50 Q 72,100 36,100 Q 0,100 0,50 Q 0,0 36,0 Z" fill="none" stroke="#4E3A52" stroke-width="15.0" stroke-linecap="round" stroke-linejoin="round"/></g><g transform="translate(431.0,475.0) scale(0.5000)"><path d="M 0,100 L 0,0 L 44,52 L 88,0 L 88,100" fill="none" stroke="#4E3A52" stroke-width="15.0" stroke-linecap="round" stroke-linejoin="round"/></g><g transform="translate(527.0,475.0) scale(0.5000)"><path d="M 0,0 L 0,100 M 0,2 L 32,2 Q 66,2 66,28 Q 66,54 32,54 L 0,54" fill="none" stroke="#4E3A52" stroke-width="15.0" stroke-linecap="round" stroke-linejoin="round"/></g><g transform="translate(612.0,475.0) scale(0.5000)"><path d="M 0,0 L 0,60 Q 0,100 35,100 Q 70,100 70,60 L 70,0" fill="none" stroke="#4E3A52" stroke-width="15.0" stroke-linecap="round" stroke-linejoin="round"/></g><g transform="translate(699.0,475.0) scale(0.5000)"><path d="M 0,2 L 70,2 M 35,2 L 35,100" fill="none" stroke="#4E3A52" stroke-width="15.0" stroke-linecap="round" stroke-linejoin="round"/></g><g transform="translate(786.0,475.0) scale(0.5000)"><path d="M 0,0 L 0,100 M 0,2 L 56,2 M 0,50 L 46,50 M 0,98 L 56,98" fill="none" stroke="#4E3A52" stroke-width="15.0" stroke-linecap="round" stroke-linejoin="round"/></g><g transform="translate(867.0,475.0) scale(0.5000)"><path d="M 0,0 L 0,100 M 0,2 L 32,2 Q 66,2 66,28 Q 66,54 32,54 L 0,54 M 26,54 L 66,100" fill="none" stroke="#4E3A52" stroke-width="15.0" stroke-linecap="round" stroke-linejoin="round"/></g></svg>