<svg xmlns="http://www.w3.org/2000/svg" viewBox="0 0 900 900" width="900" height="900"><rect width="900" height="900" fill="#FBF4E4"/><g transform="translate(68.6,266.0) scale(1.2800)"><path d="M 0,0 L 0,100 M 0,2 L 54,2 M 0,50 L 44,50" fill="none" stroke="#4E3A52" stroke-width="97.3" stroke-linecap="round" stroke-linejoin="round"/></g><g transform="translate(232.4,266.0) scale(1.2800)"><path d="M 0,100 L 0,42 Q 0,0 35,0 Q 70,0 70,42 L 70,100 M 0,62 L 70,62" fill="none" stroke="#4E3A52" stroke-width="97.3" stroke-linecap="round" stroke-linejoin="round"/></g><g transform="translate(414.2,266.0) scale(1.2800)"><path d="M 0,0 L 0,100 M 0,2 L 30,2 Q 60,2 60,25 Q 60,48 30,48 L 0,48 M 0,48 L 34,48 Q 68,48 68,74 Q 68,98 34,98 L 0,98" fill="none" stroke="#4E3A52" stroke-width="97.3" stroke-linecap="round" stroke-linejoin="round"/></g><g transform="translate(593.4,266.0) scale(1.2800)"><path d="M 0,0 L 0,100 M 0,98 L 54,98" fill="none" stroke="#4E3A52" stroke-width="97.3" stroke-linecap="round" stroke-linejoin="round"/></g><g transform="translate(757.2,266.0) scale(1.2800)"><path d="M 0,0 L 0,100 M 0,2 L 56,2 M 0,50 L 46,50 M 0,98 L 56,98" fill="none" stroke="#4E3A52" stroke-width="97.3" stroke-linecap="round" stroke-linejoin="round"/></g><g transform="translate(68.6,266.0) scale(1.2800)"><path d="M 0,0 L 0,100 M 0,2 L 54,2 M 0,50 L 44,50" fill="none" stroke="#C9A9D8" stroke-width="79.4" stroke-linecap="round" stroke-linejoin="round"/></g><g transform="translate(232.4,266.0) scale(1.2800)"><path d="M 0,100 L 0,42 Q 0,0 35,0 Q 70,0 70,42 L 70,100 M 0,62 L 70,62" fill="none" stroke="#C9A9D8" stroke-width="79.4" stroke-linecap="round" stroke-linejoin="round"/></g><g transform="translate(414.2,266.0) scale(1.2800)"><path d="M 0,0 L 0,100 M 0,2 L 30,2 Q 60,2 60,25 Q 60,48 30,48 L 0,48 M 0,48 L 34,48 Q 68,48 68,74 Q 68,98 34,98 L 0,98" fill="none" stroke="#C9A9D8" stroke-width="79.4" stroke-linecap="round" stroke-linejoin="round"/></g><g transform="translate(593.4,266.0) scale(1.2800)"><path d="M 0,0 L 0,100 M 0,98 L 54,98" fill="none" stroke="#C9A9D8" stroke-width="79.4" stroke-linecap="round" stroke-linejoin="round"/></g><g transform="translate(757.2,266.0) scale(1.2800)"><path d="M 0,0 L 0,100 M 0,2 L 56,2 M 0,50 L 46,50 M 0,98 L 56,98" fill="none" stroke="#C9A9D8" stroke-width="79.4" stroke-linecap="round" stroke-linejoin="round"/></g><g transform="translate(68.6,266.0) scale(1.2800)"><path d="M 0,0 L 0,100 M 0,2 L 54,2 M 0,50 L 44,50" fill="none" stroke="#F0A8BA" stroke-width="61.4" stroke-linecap="round" stroke-linejoin="round"/></g><g transform="translate(232.4,266.0) scale(1.2800)"><path d="M 0,100 L 0,42 Q 0,0 35,0 Q 70,0 70,42 L 70,100 M 0,62 L 70,62" fill="none" stroke="#F0A8BA" stroke-width="61.4" stroke-linecap="round" stroke-linejoin="round"/></g><g transform="translate(414.2,266.0) scale(1.2800)"><path d="M 0,0 L 0,100 M 0,2 L 30,2 Q 60,2 60,25 Q 60,48 30,48 L 0,48 M 0,48 L 34,48 Q 68,48 68,74 Q 68,98 34,98 L 0,98" fill="none" stroke="#F0A8BA" stroke-width="61.4" stroke-linecap="round" stroke-linejoin="round"/></g><g transform="translate(593.4,266.0) scale(1.2800)"><path d="M 0,0 L 0,100 M 0,98 L 54,98" fill="none" stroke="#F0A8BA" stroke-width="61.4" stroke-linecap="round" stroke-linejoin="round"/></g><g transform="translate(757.2,266.0) scale(1.2800)"><path d="M 0,0 L 0,100 M 0,2 L 56,2 M 0,50 L 46,50 M 0,98 L 56,98" fill="none" stroke="#F0A8BA" stroke-width="61.4" stroke-linecap="round" stroke-linejoin="round"/></g><g transform="translate(68.6,266.0) scale(1.2800)"><path d="M 0,0 L 0,100 M 0,2 L 54,2 M 0,50 L 44,50" fill="none" stroke="#F8C9A0" stroke-width="43.5" stroke-linecap="round" stroke-linejoin="round"/></g><g transform="translate(232.4,266.0) scale(1.2800)"><path d="M 0,100 L 0,42 Q 0,0 35,0 Q 70,0 70,42 L 70,100 M 0,62 L 70,62" fill="none" stroke="#F8C9A0" stroke-width="43.5" stroke-linecap="round" stroke-linejoin="round"/></g><g transform="translate(414.2,266.0) scale(1.2800)"><path d="M 0,0 L 0,100 M 0,2 L 30,2 Q 60,2 60,25 Q 60,48 30,48 L 0,48 M 0,48 L 34,48 Q 68,48 68,74 Q 68,98 34,98 L 0,98" fill="none" stroke="#F8C9A0" stroke-width="43.5" stroke-linecap="round" stroke-linejoin="round"/></g><g transform="translate(593.4,266.0) scale(1.2800)"><path d="M 0,0 L 0,100 M 0,98 L 54,98" fill="none" stroke="#F8C9A0" stroke-width="43.5" stroke-linecap="round" stroke-linejoin="round"/></g><g transform="translate(757.2,266.0) scale(1.2800)"><path d="M 0,0 L 0,100 M 0,2 L 56,2 M 0,50 L 46,50 M 0,98 L 56,98" fill="none" stroke="#F8C9A0" stroke-width="43.5" stroke-linecap="round" stroke-linejoin="round"/></g><g transform="translate(68.6,266.0) scale(1.2800)"><path d="M 0,0 L 0,100 M 0,2 L 54,2 M 0,50 L 44,50" fill="none" stroke="#F7E8AC" stroke-width="25.6" stroke-linecap="round" stroke-linejoin="round"/></g><g transform="translate(232.4,266.0) scale(1.2800)"><path d="M 0,100 L 0,42 Q 0,0 35,0 Q 70,0 70,42 L 70,100 M 0,62 L 70,62" fill="none" stroke="#F7E8AC" stroke-width="25.6" stroke-linecap="round" stroke-linejoin="round"/></g><g transform="translate(414.2,266.0) scale(1.2800)"><path d="M 0,0 L 0,100 M 0,2 L 30,2 Q 60,2 60,25 Q 60,48 30,48 L 0,48 M 0,48 L 34,48 Q 68,48 68,74 Q 68,98 34,98 L 0,98" fill="none" stroke="#F7E8AC" stroke-width="25.6" stroke-linecap="round" stroke-linejoin="round"/></g><g transform="translate(593.4,266.0) scale(1.2800)"><path d="M 0,0 L 0,100 M 0,98 L 54,98" fill="none" stroke="#F7E8AC" stroke-width="25.6" stroke-linecap="round" stroke-linejoin="round"/></g><g transform="translate(757.2,266.0) scale(1.2800)"><path d="M 0,0 L 0,100 M 0,2 L 56,2 M 0,50 L 46,50 M 0,98 L 56,98" fill="none" stroke="#F7E8AC" stroke-width="25.6" stroke-linecap="round" stroke-linejoin="round"/></g><g transform="translate(68.6,266.0) scale(1.2800)"><path d="M 0,0 L 0,100 M 0,2 L 54,2 M 0,50 L 44,50" fill="none" stroke="#9DC9C4" stroke-width="10.2" stroke-linecap="round" stroke-linejoin="round"/></g><g transform="translate(232.4,266.0) scale(1.2800)"><path d="M 0,100 L 0,42 Q 0,0 35,0 Q 70,0 70,42 L 70,100 M 0,62 L 70,62" fill="none" stroke="#9DC9C4" stroke-width="10.2" stroke-linecap="round" stroke-linejoin="round"/></g><g transform="translate(414.2,266.0) scale(1.2800)"><path d="M 0,0 L 0,100 M 0,2 L 30,2 Q 60,2 60,25 Q 60,48 30,48 L 0,48 M 0,48 L 34,48 Q 68,48 68,74 Q 68,98 34,98 L 0,98" fill="none" stroke="#9DC9C4" stroke-width="10.2" stroke-linecap="round" stroke-linejoin="round"/></g><g transform="translate(593.4,266.0) scale(1.2800)"><path d="M 0,0 L 0,100 M 0,98 L 54,98" fill="none" stroke="#9DC9C4" stroke-width="10.2" stroke-linecap="round" stroke-linejoin="round"/></g><g transform="translate(757.2,266.0) scale(1.2800)"><path d="M 0,0 L 0,100 M 0,2 L 56,2 M 0,50 L 46,50 M 0,98 L 56,98" fill="none" stroke="#9DC9C4" stroke-width="10.2" stroke-linecap="round" stroke-linejoin="round"/></g><g transform="translate(189.1,598.0) scale(0.4400)"><path d="M 62,16 Q 46,-4 24,4 Q 0,14 0,50 Q 0,86 24,96 Q 46,104 62,84" fill="none" stroke="#4E3A52" stroke-width="15.0" stroke-linecap="round" stroke-linejoin="round"/></g><g transform="translate(256.8,598.0) scale(0.4400)"><path d="M 36,0 Q 72,0 72,50 Q 72,100 36,100 Q 0,100 0,50 Q 0,0 36,0 Z" fill="none" stroke="#4E3A52" stroke-width="15.0" stroke-linecap="round" stroke-linejoin="round"/></g><g transform="translate(328.1,598.0) scale(0.4400)"><path d="M 0,100 L 0,0 L 44,52 L 88,0 L 88,100" fill="none" stroke="#4E3A52" stroke-width="15.0" stroke-linecap="round" stroke-linejoin="round"/></g><g transform="translate(406.4,598.0) scale(0.4400)"><path d="M 0,0 L 0,100 M 0,2 L 32,2 Q 66,2 66,28 Q 66,54 32,54 L 0,54" fill="none" stroke="#4E3A52" stroke-width="15.0" stroke-linecap="round" stroke-linejoin="round"/></g><g transform="translate(475.1,598.0) scale(0.4400)"><path d="M 0,0 L 0,60 Q 0,100 35,100 Q 70,100 70,60 L 70,0" fill="none" stroke="#4E3A52" stroke-width="15.0" stroke-linecap="round" stroke-linejoin="round"/></g><g transform="translate(545.5,598.0) scale(0.4400)"><path d="M 0,2 L 70,2 M 35,2 L 35,100" fill="none" stroke="#4E3A52" stroke-width="15.0" stroke-linecap="round" stroke-linejoin="round"/></g><g transform="translate(615.9,598.0) scale(0.4400)"><path d="M 0,0 L 0,100 M 0,2 L 56,2 M 0,50 L 46,50 M 0,98 L 56,98" fill="none" stroke="#4E3A52" stroke-width="15.0" stroke-linecap="round" stroke-linejoin="round"/></g><g transform="translate(681.0,598.0) scale(0.4400)"><path d="M 0,0 L 0,100 M 0,2 L 32,2 Q 66,2 66,28 Q 66,54 32,54 L 0,54 M 26,54 L 66,100" fill="none" stroke="#4E3A52" stroke-width="15.0" stroke-linecap="round" stroke-linejoin="round"/></g><g transform="translate(189.1,598.0) scale(0.4400)"><path d="M 62,16 Q 46,-4 24,4 Q 0,14 0,50 Q 0,86 24,96 Q 46,104 62,84" fill="none" stroke="#FBF4E4" stroke-width="7.0" stroke-linecap="round" stroke-linejoin="round"/></g><g transform="translate(256.8,598.0) scale(0.4400)"><path d="M 36,0 Q 72,0 72,50 Q 72,100 36,100 Q 0,100 0,50 Q 0,0 36,0 Z" fill="none" stroke="#FBF4E4" stroke-width="7.0" stroke-linecap="round" stroke-linejoin="round"/></g><g transform="translate(328.1,598.0) scale(0.4400)"><path d="M 0,100 L 0,0 L 44,52 L 88,0 L 88,100" fill="none" stroke="#FBF4E4" stroke-width="7.0" stroke-linecap="round" stroke-linejoin="round"/></g><g transform="translate(406.4,598.0) scale(0.4400)"><path d="M 0,0 L 0,100 M 0,2 L 32,2 Q 66,2 66,28 Q 66,54 32,54 L 0,54" fill="none" stroke="#FBF4E4" stroke-width="7.0" stroke-linecap="round" stroke-linejoin="round"/></g><g transform="translate(475.1,598.0) scale(0.4400)"><path d="M 0,0 L 0,60 Q 0,100 35,100 Q 70,100 70,60 L 70,0" fill="none" stroke="#FBF4E4" stroke-width="7.0" stroke-linecap="round" stroke-linejoin="round"/></g><g transform="translate(545.5,598.0) scale(0.4400)"><path d="M 0,2 L 70,2 M 35,2 L 35,100" fill="none" stroke="#FBF4E4" stroke-width="7.0" stroke-linecap="round" stroke-linejoin="round"/></g><g transform="translate(615.9,598.0) scale(0.4400)"><path d="M 0,0 L 0,100 M 0,2 L 56,2 M 0,50 L 46,50 M 0,98 L 56,98" fill="none" stroke="#FBF4E4" stroke-width="7.0" stroke-linecap="round" stroke-linejoin="round"/></g><g transform="translate(681.0,598.0) scale(0.4400)"><path d="M 0,0 L 0,100 M 0,2 L 32,2 Q 66,2 66,28 Q 66,54 32,54 L 0,54 M 26,54 L 66,100" fill="none" stroke="#FBF4E4" stroke-width="7.0" stroke-linecap="round" stroke-linejoin="round"/></g></svg>