<svg xmlns="http://www.w3.org/2000/svg" viewBox="0 0 400 400" width="400" height="400"><rect width="400" height="400" fill="#FBF4E4"/><g transform="translate(157.4,129.0) scale(1.5200)"><path d="M 0,0 L 0,100 M 0,2 L 54,2 M 0,50 L 44,50" fill="none" stroke="#4E3A52" stroke-width="115.5" stroke-linecap="round" stroke-linejoin="round"/></g><g transform="translate(157.4,129.0) scale(1.5200)"><path d="M 0,0 L 0,100 M 0,2 L 54,2 M 0,50 L 44,50" fill="none" stroke="#C9A9D8" stroke-width="94.2" stroke-linecap="round" stroke-linejoin="round"/></g><g transform="translate(157.4,129.0) scale(1.5200)"><path d="M 0,0 L 0,100 M 0,2 L 54,2 M 0,50 L 44,50" fill="none" stroke="#F0A8BA" stroke-width="73.0" stroke-linecap="round" stroke-linejoin="round"/></g><g transform="translate(157.4,129.0) scale(1.5200)"><path d="M 0,0 L 0,100 M 0,2 L 54,2 M 0,50 L 44,50" fill="none" stroke="#F8C9A0" stroke-width="51.7" stroke-linecap="round" stroke-linejoin="round"/></g><g transform="translate(157.4,129.0) scale(1.5200)"><path d="M 0,0 L 0,100 M 0,2 L 54,2 M 0,50 L 44,50" fill="none" stroke="#F7E8AC" stroke-width="30.4" stroke-linecap="round" stroke-linejoin="round"/></g><g transform="translate(157.4,129.0) scale(1.5200)"><path d="M 0,0 L 0,100 M 0,2 L 54,2 M 0,50 L 44,50" fill="none" stroke="#9DC9C4" stroke-width="12.2" stroke-linecap="round" stroke-linejoin="round"/></g></svg>